<svg xmlns="http://www.w3.org/2000/svg" width="369.479" height="142.344" viewBox="0 0 369.479 142.344"><g fill="#fff"><path d="M0 28.573h13.504v11.823h.29c6.259-4.443 12.944-6.665 20.053-6.665 10.586 0 19.532 4.347 26.834 13.04 4.753 6.414 7.129 13.041 7.129 19.88v2.086c0 8.965-3.768 17.08-11.302 24.343-6.84 5.641-13.91 8.463-21.212 8.463h-2.666c-6.338 0-12.616-2.184-18.836-6.551h-.29v47.352h-13.504v-113.771zm13.504 39.005c0 7.572 3.555 13.602 10.664 18.084 3.283 1.584 6.259 2.375 8.925 2.375h1.797c5.602 0 10.741-2.666 15.417-7.998 2.666-3.939 3.998-7.959 3.998-12.055v-.58c0-6.529-2.918-12.017-8.751-16.46-3.788-2.473-7.65-3.709-11.591-3.709-6.53 0-12.055 2.859-16.576 8.578-2.589 3.826-3.883 7.748-3.883 11.765zM107.569 33.963c7.264 0 13.986 2.222 20.169 6.665h.175v-6.665h13.504v67.811h-13.504v-6.664c-6.299 4.443-12.732 6.664-19.301 6.664h-1.797c-10.162 0-18.951-4.442-26.37-13.33-4.56-6.414-6.839-13.252-6.839-20.518 0-11.243 4.848-20.536 14.547-27.877 5.99-4.058 12.461-6.086 19.416-6.086zm-20.459 33.848c0 7.573 3.613 13.602 10.838 18.082 3.052 1.586 6.163 2.377 9.331 2.377h.87c6.143 0 11.494-2.858 16.054-8.578 2.472-3.748 3.71-7.457 3.71-11.127v-.927c0-7.071-3.362-12.848-10.086-17.33-3.439-1.893-6.896-2.84-10.374-2.84-6.491 0-11.978 2.859-16.46 8.578-2.588 3.824-3.883 7.746-3.883 11.765zM147.212 0h13.504v101.773h-13.504v-101.773zM166.513 33.963h13.504v67.811h-13.504v-67.811zM209.169 33.963h41.498v13.504h-41.498c-3.672 0-5.949.6-6.838 1.797-1.275 1.816-1.914 3.594-1.914 5.332 0 3.014 1.391 5.043 4.174 6.086l2.492.464h18.141c10.974 0 18.142 4.192 21.502 12.577.89 2.666 1.334 5.293 1.334 7.883 0 8.347-3.711 14.373-11.129 18.082-3.014 1.392-5.834 2.086-8.461 2.086h-44.164v-13.504h43.41c3.129 0 5.254-1.332 6.375-3.998l.463-2.84c0-4.561-2.762-6.84-8.287-6.84h-19.59c-5.139 0-9.891-1.971-14.258-5.912-3.672-3.864-5.506-8.616-5.506-14.258 0-5.1 1.777-9.833 5.332-14.199 3.516-4.173 9.158-6.26 16.924-6.26zM289.208 33.963c7.264 0 13.988 2.222 20.17 6.665h.174v-6.665h13.504v67.811h-13.504v-6.664c-6.299 4.443-12.732 6.664-19.301 6.664h-1.797c-10.162 0-18.951-4.442-26.369-13.33-4.561-6.414-6.84-13.252-6.84-20.518 0-11.243 4.848-20.536 14.547-27.877 5.99-4.058 12.461-6.086 19.416-6.086zm-20.459 33.848c0 7.573 3.613 13.602 10.838 18.082 3.053 1.586 6.164 2.377 9.332 2.377h.869c6.143 0 11.494-2.858 16.055-8.578 2.472-3.748 3.709-7.457 3.709-11.127v-.927c0-7.071-3.36-12.848-10.084-17.33-3.441-1.893-6.898-2.84-10.375-2.84-6.492 0-11.979 2.859-16.461 8.578-2.588 3.824-3.883 7.746-3.883 11.765zM342.354 41.671h.175c7.188-5.139 16.172-7.708 26.95-7.708v13.504c-13.061 0-21.561 4.56-25.502 13.679-1.082 2.666-1.623 5.139-1.623 7.418v33.209h-13.504v-33.905c.774-11.051 5.276-19.782 13.504-26.197z"/></g></svg>