<?xml version="1.0" encoding="utf-8"?>
<!-- Generator: Adobe Illustrator 15.1.0, SVG Export Plug-In . SVG Version: 6.00 Build 0)  -->
<!DOCTYPE svg PUBLIC "-//W3C//DTD SVG 1.1//EN" "http://www.w3.org/Graphics/SVG/1.1/DTD/svg11.dtd">
<svg version="1.1" id="Layer_1" xmlns="http://www.w3.org/2000/svg" xmlns:xlink="http://www.w3.org/1999/xlink" x="0px" y="0px"
	 width="369.479px" height="142.344px" viewBox="0 0 369.479 142.344" enable-background="new 0 0 369.479 142.344"
	 xml:space="preserve">
<g>
	<path d="M0,28.573h13.504v11.823h0.29c6.259-4.443,12.944-6.665,20.053-6.665c10.586,0,19.532,4.347,26.834,13.04
		c4.753,6.414,7.129,13.041,7.129,19.88v2.086c0,8.965-3.768,17.079-11.302,24.343c-6.84,5.641-13.91,8.463-21.212,8.463H32.63
		c-6.338,0-12.616-2.184-18.836-6.551h-0.29v47.352H0V28.573z M13.504,67.578c0,7.573,3.555,13.602,10.664,18.084
		c3.283,1.584,6.259,2.375,8.925,2.375h1.797c5.602,0,10.741-2.666,15.417-7.998c2.666-3.94,3.998-7.959,3.998-12.055v-0.58
		c0-6.529-2.918-12.017-8.751-16.46c-3.788-2.473-7.65-3.709-11.591-3.709c-6.53,0-12.055,2.859-16.576,8.578
		C14.798,59.639,13.504,63.561,13.504,67.578z"/>
	<path d="M107.569,33.963c7.264,0,13.986,2.222,20.169,6.665h0.175v-6.665h13.504v67.811h-13.504v-6.664
		c-6.299,4.443-12.732,6.664-19.301,6.664h-1.797c-10.162,0-18.951-4.443-26.37-13.33c-4.56-6.414-6.839-13.253-6.839-20.518
		c0-11.243,4.848-20.536,14.547-27.877C94.143,35.991,100.614,33.963,107.569,33.963z M87.11,67.811
		c0,7.573,3.613,13.602,10.838,18.082c3.052,1.586,6.163,2.377,9.331,2.377h0.87c6.143,0,11.494-2.859,16.054-8.578
		c2.472-3.748,3.71-7.457,3.71-11.128v-0.927c0-7.071-3.362-12.848-10.086-17.33c-3.439-1.893-6.896-2.84-10.374-2.84
		c-6.491,0-11.978,2.859-16.46,8.578C88.405,59.87,87.11,63.792,87.11,67.811z"/>
	<path d="M147.212,0h13.504v101.773h-13.504V0z"/>
	<path d="M166.513,33.963h13.504v67.811h-13.504V33.963z"/>
	<path d="M209.169,33.963h41.498v13.504h-41.498c-3.672,0-5.949,0.6-6.838,1.797c-1.275,1.816-1.914,3.594-1.914,5.332
		c0,3.014,1.391,5.043,4.174,6.086l2.492,0.464h18.141c10.973,0,18.141,4.192,21.502,12.576c0.889,2.666,1.334,5.294,1.334,7.884
		c0,8.346-3.711,14.373-11.129,18.082c-3.014,1.391-5.834,2.086-8.461,2.086h-44.164V88.27h43.41c3.129,0,5.254-1.332,6.375-3.998
		l0.463-2.84c0-4.561-2.762-6.84-8.287-6.84h-19.59c-5.139,0-9.891-1.971-14.258-5.912c-3.672-3.864-5.506-8.616-5.506-14.258
		c0-5.1,1.777-9.833,5.332-14.199C195.761,36.05,201.403,33.963,209.169,33.963z"/>
	<path d="M289.208,33.963c7.264,0,13.988,2.222,20.17,6.665h0.174v-6.665h13.504v67.811h-13.504v-6.664
		c-6.299,4.443-12.732,6.664-19.301,6.664h-1.797c-10.162,0-18.951-4.443-26.369-13.33c-4.561-6.414-6.84-13.253-6.84-20.518
		c0-11.243,4.848-20.536,14.547-27.877C275.782,35.991,282.253,33.963,289.208,33.963z M268.749,67.811
		c0,7.573,3.613,13.602,10.838,18.082c3.053,1.586,6.164,2.377,9.332,2.377h0.869c6.143,0,11.494-2.859,16.055-8.578
		c2.471-3.748,3.709-7.457,3.709-11.128v-0.927c0-7.071-3.361-12.848-10.084-17.33c-3.441-1.893-6.898-2.84-10.375-2.84
		c-6.492,0-11.979,2.859-16.461,8.578C270.044,59.87,268.749,63.792,268.749,67.811z"/>
	<path d="M342.354,41.671h0.174c7.188-5.139,16.172-7.708,26.951-7.708v13.504c-13.061,0-21.561,4.56-25.502,13.679
		c-1.082,2.666-1.623,5.139-1.623,7.418v33.21h-13.504V67.868C329.624,56.817,334.126,48.086,342.354,41.671z"/>
</g>
</svg>
