<?xml version="1.0" encoding="utf-8"?>
<!-- Generator: Adobe Illustrator 17.1.0, SVG Export Plug-In . SVG Version: 6.00 Build 0)  -->
<!DOCTYPE svg PUBLIC "-//W3C//DTD SVG 1.1//EN" "http://www.w3.org/Graphics/SVG/1.1/DTD/svg11.dtd">
<svg version="1.1" id="Layer_1" xmlns="http://www.w3.org/2000/svg" xmlns:xlink="http://www.w3.org/1999/xlink" x="0px" y="0px"
	 viewBox="0 0 734.1 131.3" enable-background="new 0 0 734.1 131.3" xml:space="preserve">
<polygon points="69,0 90.4,43.2 138.1,50.2 103.5,83.8 111.7,131.3 69,108.9 26.4,131.3 34.5,83.8 0,50.2 47.7,43.2 "/>
<polygon points="218,0 239.4,43.2 287.1,50.2 252.5,83.8 260.7,131.3 218,108.9 175.4,131.3 183.5,83.8 149,50.2 196.7,43.2 "/>
<polygon points="367,0 388.4,43.2 436.1,50.2 401.5,83.8 409.7,131.3 367,108.9 324.4,131.3 332.5,83.8 298,50.2 345.7,43.2 "/>
<polygon points="516,0 537.4,43.2 585.1,50.2 550.5,83.8 558.7,131.3 516,108.9 473.4,131.3 481.5,83.8 447,50.2 494.7,43.2 "/>
<polygon points="665,0 686.4,43.2 734.1,50.2 699.5,83.8 707.7,131.3 665,108.9 622.4,131.3 630.5,83.8 596,50.2 643.7,43.2 "/>
</svg>
